{
 "cells": [
  {
   "cell_type": "code",
   "execution_count": 1,
   "metadata": {},
   "outputs": [
    {
     "name": "stderr",
     "output_type": "stream",
     "text": [
      "/home/chris/anaconda3/envs/translate-everywhere/lib/python3.10/site-packages/tqdm/auto.py:21: TqdmWarning: IProgress not found. Please update jupyter and ipywidgets. See https://ipywidgets.readthedocs.io/en/stable/user_install.html\n",
      "  from .autonotebook import tqdm as notebook_tqdm\n",
      "Lightning automatically upgraded your loaded checkpoint from v1.2.7 to v2.2.4. To apply the upgrade to your files permanently, run `python -m pytorch_lightning.utilities.upgrade_checkpoint ../../../../../../home/chris/.cache/torch/pyannote/models--pyannote--embedding/snapshots/4db4899737a38b2d618bbd74350915aa10293cb2/pytorch_model.bin`\n",
      "Lightning automatically upgraded your loaded checkpoint from v1.2.7 to v2.2.4. To apply the upgrade to your files permanently, run `python -m pytorch_lightning.utilities.upgrade_checkpoint ../../../../../../home/chris/.cache/torch/pyannote/models--pyannote--embedding/snapshots/4db4899737a38b2d618bbd74350915aa10293cb2/pytorch_model.bin`\n"
     ]
    },
    {
     "name": "stdout",
     "output_type": "stream",
     "text": [
      "Model was trained with pyannote.audio 0.0.1, yours is 3.2.0. Bad things might happen unless you revert pyannote.audio to 0.x.\n",
      "Model was trained with torch 1.8.1+cu102, yours is 2.3.0+cu121. Bad things might happen unless you revert torch to 1.x.\n",
      "Model was trained with pyannote.audio 0.0.1, yours is 3.2.0. Bad things might happen unless you revert pyannote.audio to 0.x.\n",
      "Model was trained with torch 1.8.1+cu102, yours is 2.3.0+cu121. Bad things might happen unless you revert torch to 1.x.\n"
     ]
    }
   ],
   "source": [
    "# 1. visit hf.co/pyannote/embedding and accept user conditions\n",
    "# 2. visit hf.co/settings/tokens to create an access token\n",
    "# 3. instantiate pretrained model\n",
    "from pyannote.audio import Model\n",
    "model = Model.from_pretrained(\"pyannote/embedding\", use_auth_token=\"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\")\n",
    "\n",
    "from pyannote.audio import Inference\n",
    "import numpy as np\n",
    "inference = Inference(model, window=\"whole\")\n",
    "\n",
    "from scipy.spatial.distance import cdist\n",
    "import numpy as np\n",
    "from IPython.display import Audio"
   ]
  },
  {
   "cell_type": "code",
   "execution_count": 2,
   "metadata": {},
   "outputs": [
    {
     "data": {
      "text/plain": [
       "<_io.BufferedRandom name='/mnt/disk1/chris/uaicraft_workspace/translate-everywhere/jupyter_test/reference_audio.wav'>"
      ]
     },
     "execution_count": 2,
     "metadata": {},
     "output_type": "execute_result"
    }
   ],
   "source": [
    "from pydub import AudioSegment\n",
    "\n",
    "## 手動找n個音檔當reference\n",
    "\n",
    "audio_list = [\n",
    "    '/mnt/disk1/chris/uaicraft_workspace/translate-everywhere/uploaded_audio/20240522/20240522112311.wav', \n",
    "    '/mnt/disk1/chris/uaicraft_workspace/translate-everywhere/uploaded_audio/20240523/20240523120527.wav', \n",
    "    '/mnt/disk1/chris/uaicraft_workspace/translate-everywhere/uploaded_audio/20240523/20240523160425.wav', \n",
    "    '/mnt/disk1/chris/uaicraft_workspace/translate-everywhere/uploaded_audio/20240524/20240524121910.wav'\n",
    "]\n",
    "\n",
    "combined = AudioSegment.empty()\n",
    "\n",
    "for file in audio_list:\n",
    "    audio = AudioSegment.from_wav(file)\n",
    "    combined += audio\n",
    "\n",
    "# 將合併後的音檔導出\n",
    "combined.export('/mnt/disk1/chris/uaicraft_workspace/translate-everywhere/jupyter_test/reference_audio.wav', format='wav')"
   ]
  },
  {
   "cell_type": "code",
   "execution_count": 3,
   "metadata": {},
   "outputs": [],
   "source": [
    "## 取 reference embedding\n",
    "ref_embedding = inference(\"/mnt/disk1/chris/uaicraft_workspace/translate-everywhere/jupyter_test/reference_audio.wav\")\n",
    "ref_embedding = np.expand_dims(ref_embedding, axis=0)"
   ]
  },
  {
   "cell_type": "code",
   "execution_count": 4,
   "metadata": {},
   "outputs": [
    {
     "name": "stdout",
     "output_type": "stream",
     "text": [
      "/mnt/disk1/chris/uaicraft_workspace/translate-everywhere/uploaded_audio/20240523/20240523133833_azure_temp.wav\n",
      "/mnt/disk1/chris/uaicraft_workspace/translate-everywhere/uploaded_audio/20240523/20240523134003_azure_temp.wav\n"
     ]
    }
   ],
   "source": [
    "## search all audio\n",
    "from pathlib import Path\n",
    "import shutil\n",
    "folder = Path('/mnt/disk1/chris/uaicraft_workspace/translate-everywhere/uploaded_audio')\n",
    "for date_folder in folder.iterdir():\n",
    "    if date_folder.is_dir() is False:\n",
    "        continue\n",
    "    for wav_file in date_folder.iterdir():\n",
    "        if wav_file.suffix != \".wav\":\n",
    "            continue\n",
    "        try:\n",
    "            embedding = inference(wav_file)\n",
    "        except:\n",
    "            print(wav_file)\n",
    "            continue\n",
    "        embedding = np.expand_dims(embedding, axis=0)\n",
    "        distance = cdist(ref_embedding, embedding, \"cosine\")[0][0]\n",
    "        if distance < 0.7:\n",
    "            shutil.copy(str(wav_file), '/mnt/disk1/chris/uaicraft_workspace/translate-everywhere/jupyter_test/evo_audio')\n"
   ]
  },
  {
   "cell_type": "code",
   "execution_count": 4,
   "metadata": {},
   "outputs": [
    {
     "data": {
      "text/plain": [
       "(512,)"
      ]
     },
     "execution_count": 4,
     "metadata": {},
     "output_type": "execute_result"
    }
   ],
   "source": [
    "distance"
   ]
  },
  {
   "cell_type": "code",
   "execution_count": 5,
   "metadata": {},
   "outputs": [
    {
     "name": "stdout",
     "output_type": "stream",
     "text": [
      "音頻文件是否一模一樣: True\n"
     ]
    }
   ],
   "source": [
    "from pydub import AudioSegment\n",
    "import numpy as np\n",
    "\n",
    "def compare_audio_files(file1, file2):\n",
    "    audio1 = AudioSegment.from_file(file1)\n",
    "    audio2 = AudioSegment.from_file(file2)\n",
    "\n",
    "    # 比較長度\n",
    "    if len(audio1) != len(audio2):\n",
    "        return False\n",
    "\n",
    "    # 確保採樣率相同\n",
    "    if audio1.frame_rate != audio2.frame_rate:\n",
    "        return False\n",
    "\n",
    "    # 將音頻數據轉換為數組\n",
    "    samples1 = np.array(audio1.get_array_of_samples())\n",
    "    samples2 = np.array(audio2.get_array_of_samples())\n",
    "\n",
    "    # 比較音頻數據\n",
    "    return np.array_equal(samples1, samples2)\n",
    "\n",
    "# 指定音頻文件的路徑\n",
    "file1 = '/mnt/disk1/chris/uaicraft_workspace/translate-everywhere/jupyter_test/evo_audio/20240520180130.wav'\n",
    "file2 = '/mnt/disk1/chris/uaicraft_workspace/translate-everywhere/jupyter_test/evo_audio/20240520175652.wav'\n",
    "\n",
    "# 比較音頻文件\n",
    "are_identical = compare_audio_files(file1, file2)\n",
    "\n",
    "print(f\"音頻文件是否一模一樣: {are_identical}\")"
   ]
  },
  {
   "cell_type": "code",
   "execution_count": 6,
   "metadata": {},
   "outputs": [],
   "source": [
    "import os\n",
    "for wav_file in Path('/mnt/disk1/chris/uaicraft_workspace/translate-everywhere/jupyter_test/evo_audio').iterdir():\n",
    "    if wav_file.suffix != \".wav\":\n",
    "        continue\n",
    "    if wav_file.name == '20240520180130.wav':\n",
    "        continue\n",
    "    are_identical = compare_audio_files(file1, str(wav_file))\n",
    "    if are_identical:\n",
    "        os.remove(str(wav_file))"
   ]
  },
  {
   "cell_type": "code",
   "execution_count": 13,
   "metadata": {},
   "outputs": [],
   "source": [
    "audio_list = list(Path('/mnt/disk1/chris/uaicraft_workspace/translate-everywhere/jupyter_test/evo_audio').iterdir())\n",
    "for wav_file in audio_list:\n",
    "    if wav_file.exists() == False:\n",
    "        continue\n",
    "    ref_file = wav_file\n",
    "\n",
    "    for hyp_file in Path('/mnt/disk1/chris/uaicraft_workspace/translate-everywhere/jupyter_test/evo_audio').iterdir():\n",
    "        if hyp_file.suffix != \".wav\":\n",
    "            continue\n",
    "        if hyp_file.name == ref_file.name:\n",
    "            continue\n",
    "        are_identical = compare_audio_files(str(ref_file), str(hyp_file))\n",
    "        if are_identical:\n",
    "            os.remove(str(hyp_file))\n",
    "\n",
    "        \n",
    "    "
   ]
  },
  {
   "cell_type": "code",
   "execution_count": 3,
   "metadata": {},
   "outputs": [
    {
     "data": {
      "text/plain": [
       "6.4867552083333315"
      ]
     },
     "execution_count": 3,
     "metadata": {},
     "output_type": "execute_result"
    }
   ],
   "source": [
    "from pathlib import Path\n",
    "import torchaudio\n",
    "\n",
    "\n",
    "total = 0\n",
    "for wav_file in Path('/mnt/disk1/chris/uaicraft_workspace/translate-everywhere/jupyter_test/evo_audio').iterdir():\n",
    "    if wav_file.suffix != \".wav\":\n",
    "        continue\n",
    "    data, sr = torchaudio.load(wav_file)\n",
    "    total += data.shape[1] / sr\n",
    "\n",
    "total / 60\n"
   ]
  },
  {
   "cell_type": "code",
   "execution_count": 4,
   "metadata": {},
   "outputs": [
    {
     "name": "stdout",
     "output_type": "stream",
     "text": [
      "合併完成，輸出文件為：/mnt/disk1/chris/uaicraft_workspace/translate-everywhere/jupyter_test/evo_audio/combined_audio.wav\n"
     ]
    }
   ],
   "source": [
    "import os\n",
    "from pydub import AudioSegment\n",
    "\n",
    "def concat_audio_files(directory, output_file):\n",
    "    combined = AudioSegment.empty()\n",
    "\n",
    "    for filename in sorted(os.listdir(directory)):\n",
    "        if filename.endswith(\".wav\"):  # 修改為需要處理的音檔格式，如 .m4a\n",
    "            file_path = os.path.join(directory, filename)\n",
    "            audio = AudioSegment.from_file(file_path)\n",
    "            combined += audio\n",
    "\n",
    "    combined.export(output_file, format='wav')\n",
    "    print(f\"合併完成，輸出文件為：{output_file}\")\n",
    "\n",
    "# 指定資料夾路徑和輸出文件路徑\n",
    "input_directory = '/mnt/disk1/chris/uaicraft_workspace/translate-everywhere/jupyter_test/evo_audio/wavs'\n",
    "output_file = '/mnt/disk1/chris/uaicraft_workspace/translate-everywhere/jupyter_test/evo_audio/combined_audio.wav'\n",
    "\n",
    "# 合併音檔\n",
    "concat_audio_files(input_directory, output_file)"
   ]
  },
  {
   "cell_type": "code",
   "execution_count": 5,
   "metadata": {},
   "outputs": [
    {
     "name": "stderr",
     "output_type": "stream",
     "text": [
      "ffmpeg version 4.4.2-0ubuntu0.22.04.1 Copyright (c) 2000-2021 the FFmpeg developers\n",
      "  built with gcc 11 (Ubuntu 11.2.0-19ubuntu1)\n",
      "  configuration: --prefix=/usr --extra-version=0ubuntu0.22.04.1 --toolchain=hardened --libdir=/usr/lib/x86_64-linux-gnu --incdir=/usr/include/x86_64-linux-gnu --arch=amd64 --enable-gpl --disable-stripping --enable-gnutls --enable-ladspa --enable-libaom --enable-libass --enable-libbluray --enable-libbs2b --enable-libcaca --enable-libcdio --enable-libcodec2 --enable-libdav1d --enable-libflite --enable-libfontconfig --enable-libfreetype --enable-libfribidi --enable-libgme --enable-libgsm --enable-libjack --enable-libmp3lame --enable-libmysofa --enable-libopenjpeg --enable-libopenmpt --enable-libopus --enable-libpulse --enable-librabbitmq --enable-librubberband --enable-libshine --enable-libsnappy --enable-libsoxr --enable-libspeex --enable-libsrt --enable-libssh --enable-libtheora --enable-libtwolame --enable-libvidstab --enable-libvorbis --enable-libvpx --enable-libwebp --enable-libx265 --enable-libxml2 --enable-libxvid --enable-libzimg --enable-libzmq --enable-libzvbi --enable-lv2 --enable-omx --enable-openal --enable-opencl --enable-opengl --enable-sdl2 --enable-pocketsphinx --enable-librsvg --enable-libmfx --enable-libdc1394 --enable-libdrm --enable-libiec61883 --enable-chromaprint --enable-frei0r --enable-libx264 --enable-shared\n",
      "  libavutil      56. 70.100 / 56. 70.100\n",
      "  libavcodec     58.134.100 / 58.134.100\n",
      "  libavformat    58. 76.100 / 58. 76.100\n",
      "  libavdevice    58. 13.100 / 58. 13.100\n",
      "  libavfilter     7.110.100 /  7.110.100\n",
      "  libswscale      5.  9.100 /  5.  9.100\n",
      "  libswresample   3.  9.100 /  3.  9.100\n",
      "  libpostproc    55.  9.100 / 55.  9.100\n",
      "Input #0, mov,mp4,m4a,3gp,3g2,mj2, from '/mnt/disk1/chris/uaicraft_workspace/translate-everywhere/jupyter_test/evo_audio/record_m4a/No._16_Beiping_E_Rd_9.m4a':\n",
      "  Metadata:\n",
      "    major_brand     : qt  \n",
      "    minor_version   : 0\n",
      "    compatible_brands: qt  \n",
      "    creation_time   : 2024-05-24T09:56:47.000000Z\n",
      "    voice-memo-uuid : 16975DA4-115F-4BEB-8BB2-4AE69D35F2BF\n",
      "    encoder         : com.apple.VoiceMemos (iPhone Version 17.4.1 (Build 21E236))\n",
      "    title           : No. 16 Beiping E Rd 9\n",
      "    com.apple.quicktime.creationdate: 2024-05-24T09:45:15Z\n",
      "  Duration: 00:00:38.18, start: 0.000000, bitrate: 67 kb/s\n",
      "  Stream #0:0(und): Audio: aac (LC) (mp4a / 0x6134706D), 48000 Hz, mono, fltp, 65 kb/s (default)\n",
      "    Metadata:\n",
      "      creation_time   : 2024-05-24T09:56:47.000000Z\n",
      "      handler_name    : Core Media Audio\n",
      "      vendor_id       : [0][0][0][0]\n",
      "Stream mapping:\n",
      "  Stream #0:0 -> #0:0 (aac (native) -> pcm_s16le (native))\n",
      "Press [q] to stop, [?] for help\n",
      "Output #0, wav, to '/mnt/disk1/chris/uaicraft_workspace/translate-everywhere/jupyter_test/evo_audio/record_wav/No._16_Beiping_E_Rd_9.wav':\n",
      "  Metadata:\n",
      "    major_brand     : qt  \n",
      "    minor_version   : 0\n",
      "    compatible_brands: qt  \n",
      "    com.apple.quicktime.creationdate: 2024-05-24T09:45:15Z\n",
      "    voice-memo-uuid : 16975DA4-115F-4BEB-8BB2-4AE69D35F2BF\n",
      "    INAM            : No. 16 Beiping E Rd 9\n",
      "    ISFT            : Lavf58.76.100\n",
      "  Stream #0:0(und): Audio: pcm_s16le ([1][0][0][0] / 0x0001), 48000 Hz, mono, s16, 768 kb/s (default)\n",
      "    Metadata:\n",
      "      creation_time   : 2024-05-24T09:56:47.000000Z\n",
      "      handler_name    : Core Media Audio\n",
      "      vendor_id       : [0][0][0][0]\n",
      "      encoder         : Lavc58.134.100 pcm_s16le\n",
      "size=    3580kB time=00:00:38.16 bitrate= 768.5kbits/s speed=2.1e+03x    \n",
      "video:0kB audio:3580kB subtitle:0kB other streams:0kB global headers:0kB muxing overhead: 0.002946%\n",
      "ffmpeg version 4.4.2-0ubuntu0.22.04.1 Copyright (c) 2000-2021 the FFmpeg developers\n",
      "  built with gcc 11 (Ubuntu 11.2.0-19ubuntu1)\n",
      "  configuration: --prefix=/usr --extra-version=0ubuntu0.22.04.1 --toolchain=hardened --libdir=/usr/lib/x86_64-linux-gnu --incdir=/usr/include/x86_64-linux-gnu --arch=amd64 --enable-gpl --disable-stripping --enable-gnutls --enable-ladspa --enable-libaom --enable-libass --enable-libbluray --enable-libbs2b --enable-libcaca --enable-libcdio --enable-libcodec2 --enable-libdav1d --enable-libflite --enable-libfontconfig --enable-libfreetype --enable-libfribidi --enable-libgme --enable-libgsm --enable-libjack --enable-libmp3lame --enable-libmysofa --enable-libopenjpeg --enable-libopenmpt --enable-libopus --enable-libpulse --enable-librabbitmq --enable-librubberband --enable-libshine --enable-libsnappy --enable-libsoxr --enable-libspeex --enable-libsrt --enable-libssh --enable-libtheora --enable-libtwolame --enable-libvidstab --enable-libvorbis --enable-libvpx --enable-libwebp --enable-libx265 --enable-libxml2 --enable-libxvid --enable-libzimg --enable-libzmq --enable-libzvbi --enable-lv2 --enable-omx --enable-openal --enable-opencl --enable-opengl --enable-sdl2 --enable-pocketsphinx --enable-librsvg --enable-libmfx --enable-libdc1394 --enable-libdrm --enable-libiec61883 --enable-chromaprint --enable-frei0r --enable-libx264 --enable-shared\n",
      "  libavutil      56. 70.100 / 56. 70.100\n",
      "  libavcodec     58.134.100 / 58.134.100\n",
      "  libavformat    58. 76.100 / 58. 76.100\n",
      "  libavdevice    58. 13.100 / 58. 13.100\n",
      "  libavfilter     7.110.100 /  7.110.100\n",
      "  libswscale      5.  9.100 /  5.  9.100\n",
      "  libswresample   3.  9.100 /  3.  9.100\n",
      "  libpostproc    55.  9.100 / 55.  9.100\n",
      "Input #0, mov,mp4,m4a,3gp,3g2,mj2, from '/mnt/disk1/chris/uaicraft_workspace/translate-everywhere/jupyter_test/evo_audio/record_m4a/No._16_Beiping_E_Rd_8.m4a':\n",
      "  Metadata:\n",
      "    major_brand     : qt  \n",
      "    minor_version   : 0\n",
      "    compatible_brands: qt  \n",
      "    creation_time   : 2024-05-24T09:56:56.000000Z\n",
      "    voice-memo-uuid : 9A707020-0206-49BD-9CBC-5CB0300DF37D\n",
      "    encoder         : com.apple.VoiceMemos (iPhone Version 17.4.1 (Build 21E236))\n",
      "    title           : No. 16 Beiping E Rd 8\n",
      "    com.apple.quicktime.creationdate: 2024-05-24T09:43:13Z\n",
      "  Duration: 00:01:34.34, start: 0.000000, bitrate: 66 kb/s\n",
      "  Stream #0:0(und): Audio: aac (LC) (mp4a / 0x6134706D), 48000 Hz, mono, fltp, 65 kb/s (default)\n",
      "    Metadata:\n",
      "      creation_time   : 2024-05-24T09:56:56.000000Z\n",
      "      handler_name    : Core Media Audio\n",
      "      vendor_id       : [0][0][0][0]\n",
      "Stream mapping:\n",
      "  Stream #0:0 -> #0:0 (aac (native) -> pcm_s16le (native))\n",
      "Press [q] to stop, [?] for help\n",
      "Output #0, wav, to '/mnt/disk1/chris/uaicraft_workspace/translate-everywhere/jupyter_test/evo_audio/record_wav/No._16_Beiping_E_Rd_8.wav':\n",
      "  Metadata:\n",
      "    major_brand     : qt  \n",
      "    minor_version   : 0\n",
      "    compatible_brands: qt  \n",
      "    com.apple.quicktime.creationdate: 2024-05-24T09:43:13Z\n",
      "    voice-memo-uuid : 9A707020-0206-49BD-9CBC-5CB0300DF37D\n",
      "    INAM            : No. 16 Beiping E Rd 8\n",
      "    ISFT            : Lavf58.76.100\n",
      "  Stream #0:0(und): Audio: pcm_s16le ([1][0][0][0] / 0x0001), 48000 Hz, mono, s16, 768 kb/s (default)\n",
      "    Metadata:\n",
      "      creation_time   : 2024-05-24T09:56:56.000000Z\n",
      "      handler_name    : Core Media Audio\n",
      "      vendor_id       : [0][0][0][0]\n",
      "      encoder         : Lavc58.134.100 pcm_s16le\n",
      "size=    8846kB time=00:01:34.33 bitrate= 768.2kbits/s speed=2.2e+03x    \n",
      "video:0kB audio:8846kB subtitle:0kB other streams:0kB global headers:0kB muxing overhead: 0.001192%\n",
      "ffmpeg version 4.4.2-0ubuntu0.22.04.1 Copyright (c) 2000-2021 the FFmpeg developers\n",
      "  built with gcc 11 (Ubuntu 11.2.0-19ubuntu1)\n",
      "  configuration: --prefix=/usr --extra-version=0ubuntu0.22.04.1 --toolchain=hardened --libdir=/usr/lib/x86_64-linux-gnu --incdir=/usr/include/x86_64-linux-gnu --arch=amd64 --enable-gpl --disable-stripping --enable-gnutls --enable-ladspa --enable-libaom --enable-libass --enable-libbluray --enable-libbs2b --enable-libcaca --enable-libcdio --enable-libcodec2 --enable-libdav1d --enable-libflite --enable-libfontconfig --enable-libfreetype --enable-libfribidi --enable-libgme --enable-libgsm --enable-libjack --enable-libmp3lame --enable-libmysofa --enable-libopenjpeg --enable-libopenmpt --enable-libopus --enable-libpulse --enable-librabbitmq --enable-librubberband --enable-libshine --enable-libsnappy --enable-libsoxr --enable-libspeex --enable-libsrt --enable-libssh --enable-libtheora --enable-libtwolame --enable-libvidstab --enable-libvorbis --enable-libvpx --enable-libwebp --enable-libx265 --enable-libxml2 --enable-libxvid --enable-libzimg --enable-libzmq --enable-libzvbi --enable-lv2 --enable-omx --enable-openal --enable-opencl --enable-opengl --enable-sdl2 --enable-pocketsphinx --enable-librsvg --enable-libmfx --enable-libdc1394 --enable-libdrm --enable-libiec61883 --enable-chromaprint --enable-frei0r --enable-libx264 --enable-shared\n",
      "  libavutil      56. 70.100 / 56. 70.100\n",
      "  libavcodec     58.134.100 / 58.134.100\n",
      "  libavformat    58. 76.100 / 58. 76.100\n",
      "  libavdevice    58. 13.100 / 58. 13.100\n",
      "  libavfilter     7.110.100 /  7.110.100\n",
      "  libswscale      5.  9.100 /  5.  9.100\n",
      "  libswresample   3.  9.100 /  3.  9.100\n",
      "  libpostproc    55.  9.100 / 55.  9.100\n",
      "Input #0, mov,mp4,m4a,3gp,3g2,mj2, from '/mnt/disk1/chris/uaicraft_workspace/translate-everywhere/jupyter_test/evo_audio/record_m4a/No._16_Beiping_E_Rd_12.m4a':\n",
      "  Metadata:\n",
      "    major_brand     : qt  \n",
      "    minor_version   : 0\n",
      "    compatible_brands: qt  \n",
      "    creation_time   : 2024-05-24T09:55:56.000000Z\n",
      "    voice-memo-uuid : 3033B6DC-276E-4030-B648-0D659436FC6C\n",
      "    encoder         : com.apple.VoiceMemos (iPhone Version 17.4.1 (Build 21E236))\n",
      "    title           : No. 16 Beiping E Rd 12\n",
      "    com.apple.quicktime.creationdate: 2024-05-24T09:50:05Z\n",
      "  Duration: 00:00:18.45, start: 0.000000, bitrate: 66 kb/s\n",
      "  Stream #0:0(und): Audio: aac (LC) (mp4a / 0x6134706D), 48000 Hz, mono, fltp, 64 kb/s (default)\n",
      "    Metadata:\n",
      "      creation_time   : 2024-05-24T09:55:56.000000Z\n",
      "      handler_name    : Core Media Audio\n",
      "      vendor_id       : [0][0][0][0]\n",
      "Stream mapping:\n",
      "  Stream #0:0 -> #0:0 (aac (native) -> pcm_s16le (native))\n",
      "Press [q] to stop, [?] for help\n",
      "Output #0, wav, to '/mnt/disk1/chris/uaicraft_workspace/translate-everywhere/jupyter_test/evo_audio/record_wav/No._16_Beiping_E_Rd_12.wav':\n",
      "  Metadata:\n",
      "    major_brand     : qt  \n",
      "    minor_version   : 0\n",
      "    compatible_brands: qt  \n",
      "    com.apple.quicktime.creationdate: 2024-05-24T09:50:05Z\n",
      "    voice-memo-uuid : 3033B6DC-276E-4030-B648-0D659436FC6C\n",
      "    INAM            : No. 16 Beiping E Rd 12\n",
      "    ISFT            : Lavf58.76.100\n",
      "  Stream #0:0(und): Audio: pcm_s16le ([1][0][0][0] / 0x0001), 48000 Hz, mono, s16, 768 kb/s (default)\n",
      "    Metadata:\n",
      "      creation_time   : 2024-05-24T09:55:56.000000Z\n",
      "      handler_name    : Core Media Audio\n",
      "      vendor_id       : [0][0][0][0]\n",
      "      encoder         : Lavc58.134.100 pcm_s16le\n",
      "size=    1730kB time=00:00:18.43 bitrate= 768.9kbits/s speed=2.11e+03x    \n",
      "video:0kB audio:1730kB subtitle:0kB other streams:0kB global headers:0kB muxing overhead: 0.006209%\n",
      "ffmpeg version 4.4.2-0ubuntu0.22.04.1 Copyright (c) 2000-2021 the FFmpeg developers\n",
      "  built with gcc 11 (Ubuntu 11.2.0-19ubuntu1)\n",
      "  configuration: --prefix=/usr --extra-version=0ubuntu0.22.04.1 --toolchain=hardened --libdir=/usr/lib/x86_64-linux-gnu --incdir=/usr/include/x86_64-linux-gnu --arch=amd64 --enable-gpl --disable-stripping --enable-gnutls --enable-ladspa --enable-libaom --enable-libass --enable-libbluray --enable-libbs2b --enable-libcaca --enable-libcdio --enable-libcodec2 --enable-libdav1d --enable-libflite --enable-libfontconfig --enable-libfreetype --enable-libfribidi --enable-libgme --enable-libgsm --enable-libjack --enable-libmp3lame --enable-libmysofa --enable-libopenjpeg --enable-libopenmpt --enable-libopus --enable-libpulse --enable-librabbitmq --enable-librubberband --enable-libshine --enable-libsnappy --enable-libsoxr --enable-libspeex --enable-libsrt --enable-libssh --enable-libtheora --enable-libtwolame --enable-libvidstab --enable-libvorbis --enable-libvpx --enable-libwebp --enable-libx265 --enable-libxml2 --enable-libxvid --enable-libzimg --enable-libzmq --enable-libzvbi --enable-lv2 --enable-omx --enable-openal --enable-opencl --enable-opengl --enable-sdl2 --enable-pocketsphinx --enable-librsvg --enable-libmfx --enable-libdc1394 --enable-libdrm --enable-libiec61883 --enable-chromaprint --enable-frei0r --enable-libx264 --enable-shared\n",
      "  libavutil      56. 70.100 / 56. 70.100\n",
      "  libavcodec     58.134.100 / 58.134.100\n",
      "  libavformat    58. 76.100 / 58. 76.100\n",
      "  libavdevice    58. 13.100 / 58. 13.100\n",
      "  libavfilter     7.110.100 /  7.110.100\n",
      "  libswscale      5.  9.100 /  5.  9.100\n",
      "  libswresample   3.  9.100 /  3.  9.100\n",
      "  libpostproc    55.  9.100 / 55.  9.100\n",
      "Input #0, mov,mp4,m4a,3gp,3g2,mj2, from '/mnt/disk1/chris/uaicraft_workspace/translate-everywhere/jupyter_test/evo_audio/record_m4a/No._16_Beiping_E_Rd_11.m4a':\n",
      "  Metadata:\n",
      "    major_brand     : qt  \n",
      "    minor_version   : 0\n",
      "    compatible_brands: qt  \n",
      "    creation_time   : 2024-05-24T09:56:22.000000Z\n",
      "    voice-memo-uuid : 988141B2-48D9-4EC8-97E5-E908449969A7\n",
      "    encoder         : com.apple.VoiceMemos (iPhone Version 17.4.1 (Build 21E236))\n",
      "    title           : No. 16 Beiping E Rd 11\n",
      "    com.apple.quicktime.creationdate: 2024-05-24T09:48:29Z\n",
      "  Duration: 00:00:15.41, start: 0.000000, bitrate: 67 kb/s\n",
      "  Stream #0:0(und): Audio: aac (LC) (mp4a / 0x6134706D), 48000 Hz, mono, fltp, 65 kb/s (default)\n",
      "    Metadata:\n",
      "      creation_time   : 2024-05-24T09:56:22.000000Z\n",
      "      handler_name    : Core Media Audio\n",
      "      vendor_id       : [0][0][0][0]\n",
      "Stream mapping:\n",
      "  Stream #0:0 -> #0:0 (aac (native) -> pcm_s16le (native))\n",
      "Press [q] to stop, [?] for help\n",
      "Output #0, wav, to '/mnt/disk1/chris/uaicraft_workspace/translate-everywhere/jupyter_test/evo_audio/record_wav/No._16_Beiping_E_Rd_11.wav':\n",
      "  Metadata:\n",
      "    major_brand     : qt  \n",
      "    minor_version   : 0\n",
      "    compatible_brands: qt  \n",
      "    com.apple.quicktime.creationdate: 2024-05-24T09:48:29Z\n",
      "    voice-memo-uuid : 988141B2-48D9-4EC8-97E5-E908449969A7\n",
      "    INAM            : No. 16 Beiping E Rd 11\n",
      "    ISFT            : Lavf58.76.100\n",
      "  Stream #0:0(und): Audio: pcm_s16le ([1][0][0][0] / 0x0001), 48000 Hz, mono, s16, 768 kb/s (default)\n",
      "    Metadata:\n",
      "      creation_time   : 2024-05-24T09:56:22.000000Z\n",
      "      handler_name    : Core Media Audio\n",
      "      vendor_id       : [0][0][0][0]\n",
      "      encoder         : Lavc58.134.100 pcm_s16le\n",
      "size=    1446kB time=00:00:15.40 bitrate= 769.1kbits/s speed=1.93e+03x    \n",
      "video:0kB audio:1446kB subtitle:0kB other streams:0kB global headers:0kB muxing overhead: 0.007429%\n"
     ]
    },
    {
     "name": "stdout",
     "output_type": "stream",
     "text": [
      "Converted /mnt/disk1/chris/uaicraft_workspace/translate-everywhere/jupyter_test/evo_audio/record_m4a/No._16_Beiping_E_Rd_9.m4a to /mnt/disk1/chris/uaicraft_workspace/translate-everywhere/jupyter_test/evo_audio/record_wav/No._16_Beiping_E_Rd_9.wav\n",
      "Converted /mnt/disk1/chris/uaicraft_workspace/translate-everywhere/jupyter_test/evo_audio/record_m4a/No._16_Beiping_E_Rd_8.m4a to /mnt/disk1/chris/uaicraft_workspace/translate-everywhere/jupyter_test/evo_audio/record_wav/No._16_Beiping_E_Rd_8.wav\n",
      "Converted /mnt/disk1/chris/uaicraft_workspace/translate-everywhere/jupyter_test/evo_audio/record_m4a/No._16_Beiping_E_Rd_12.m4a to /mnt/disk1/chris/uaicraft_workspace/translate-everywhere/jupyter_test/evo_audio/record_wav/No._16_Beiping_E_Rd_12.wav\n",
      "Converted /mnt/disk1/chris/uaicraft_workspace/translate-everywhere/jupyter_test/evo_audio/record_m4a/No._16_Beiping_E_Rd_11.m4a to /mnt/disk1/chris/uaicraft_workspace/translate-everywhere/jupyter_test/evo_audio/record_wav/No._16_Beiping_E_Rd_11.wav\n"
     ]
    },
    {
     "name": "stderr",
     "output_type": "stream",
     "text": [
      "ffmpeg version 4.4.2-0ubuntu0.22.04.1 Copyright (c) 2000-2021 the FFmpeg developers\n",
      "  built with gcc 11 (Ubuntu 11.2.0-19ubuntu1)\n",
      "  configuration: --prefix=/usr --extra-version=0ubuntu0.22.04.1 --toolchain=hardened --libdir=/usr/lib/x86_64-linux-gnu --incdir=/usr/include/x86_64-linux-gnu --arch=amd64 --enable-gpl --disable-stripping --enable-gnutls --enable-ladspa --enable-libaom --enable-libass --enable-libbluray --enable-libbs2b --enable-libcaca --enable-libcdio --enable-libcodec2 --enable-libdav1d --enable-libflite --enable-libfontconfig --enable-libfreetype --enable-libfribidi --enable-libgme --enable-libgsm --enable-libjack --enable-libmp3lame --enable-libmysofa --enable-libopenjpeg --enable-libopenmpt --enable-libopus --enable-libpulse --enable-librabbitmq --enable-librubberband --enable-libshine --enable-libsnappy --enable-libsoxr --enable-libspeex --enable-libsrt --enable-libssh --enable-libtheora --enable-libtwolame --enable-libvidstab --enable-libvorbis --enable-libvpx --enable-libwebp --enable-libx265 --enable-libxml2 --enable-libxvid --enable-libzimg --enable-libzmq --enable-libzvbi --enable-lv2 --enable-omx --enable-openal --enable-opencl --enable-opengl --enable-sdl2 --enable-pocketsphinx --enable-librsvg --enable-libmfx --enable-libdc1394 --enable-libdrm --enable-libiec61883 --enable-chromaprint --enable-frei0r --enable-libx264 --enable-shared\n",
      "  libavutil      56. 70.100 / 56. 70.100\n",
      "  libavcodec     58.134.100 / 58.134.100\n",
      "  libavformat    58. 76.100 / 58. 76.100\n",
      "  libavdevice    58. 13.100 / 58. 13.100\n",
      "  libavfilter     7.110.100 /  7.110.100\n",
      "  libswscale      5.  9.100 /  5.  9.100\n",
      "  libswresample   3.  9.100 /  3.  9.100\n",
      "  libpostproc    55.  9.100 / 55.  9.100\n",
      "Input #0, mov,mp4,m4a,3gp,3g2,mj2, from '/mnt/disk1/chris/uaicraft_workspace/translate-everywhere/jupyter_test/evo_audio/record_m4a/No._16_Beiping_E_Rd_10.m4a':\n",
      "  Metadata:\n",
      "    major_brand     : qt  \n",
      "    minor_version   : 0\n",
      "    compatible_brands: qt  \n",
      "    creation_time   : 2024-05-24T09:56:35.000000Z\n",
      "    voice-memo-uuid : 7F41D406-96D5-403F-9B73-382982EF0CF8\n",
      "    encoder         : com.apple.VoiceMemos (iPhone Version 17.4.1 (Build 21E236))\n",
      "    title           : No. 16 Beiping E Rd 10\n",
      "    com.apple.quicktime.creationdate: 2024-05-24T09:46:03Z\n",
      "  Duration: 00:00:32.03, start: 0.000000, bitrate: 66 kb/s\n",
      "  Stream #0:0(und): Audio: aac (LC) (mp4a / 0x6134706D), 48000 Hz, mono, fltp, 64 kb/s (default)\n",
      "    Metadata:\n",
      "      creation_time   : 2024-05-24T09:56:35.000000Z\n",
      "      handler_name    : Core Media Audio\n",
      "      vendor_id       : [0][0][0][0]\n",
      "Stream mapping:\n",
      "  Stream #0:0 -> #0:0 (aac (native) -> pcm_s16le (native))\n",
      "Press [q] to stop, [?] for help\n",
      "Output #0, wav, to '/mnt/disk1/chris/uaicraft_workspace/translate-everywhere/jupyter_test/evo_audio/record_wav/No._16_Beiping_E_Rd_10.wav':\n",
      "  Metadata:\n",
      "    major_brand     : qt  \n",
      "    minor_version   : 0\n",
      "    compatible_brands: qt  \n",
      "    com.apple.quicktime.creationdate: 2024-05-24T09:46:03Z\n",
      "    voice-memo-uuid : 7F41D406-96D5-403F-9B73-382982EF0CF8\n",
      "    INAM            : No. 16 Beiping E Rd 10\n",
      "    ISFT            : Lavf58.76.100\n",
      "  Stream #0:0(und): Audio: pcm_s16le ([1][0][0][0] / 0x0001), 48000 Hz, mono, s16, 768 kb/s (default)\n",
      "    Metadata:\n",
      "      creation_time   : 2024-05-24T09:56:35.000000Z\n",
      "      handler_name    : Core Media Audio\n",
      "      vendor_id       : [0][0][0][0]\n",
      "      encoder         : Lavc58.134.100 pcm_s16le\n",
      "size=    3004kB time=00:00:32.02 bitrate= 768.5kbits/s speed=2.17e+03x    \n",
      "video:0kB audio:3004kB subtitle:0kB other streams:0kB global headers:0kB muxing overhead: 0.003576%\n",
      "ffmpeg version 4.4.2-0ubuntu0.22.04.1 Copyright (c) 2000-2021 the FFmpeg developers\n",
      "  built with gcc 11 (Ubuntu 11.2.0-19ubuntu1)\n",
      "  configuration: --prefix=/usr --extra-version=0ubuntu0.22.04.1 --toolchain=hardened --libdir=/usr/lib/x86_64-linux-gnu --incdir=/usr/include/x86_64-linux-gnu --arch=amd64 --enable-gpl --disable-stripping --enable-gnutls --enable-ladspa --enable-libaom --enable-libass --enable-libbluray --enable-libbs2b --enable-libcaca --enable-libcdio --enable-libcodec2 --enable-libdav1d --enable-libflite --enable-libfontconfig --enable-libfreetype --enable-libfribidi --enable-libgme --enable-libgsm --enable-libjack --enable-libmp3lame --enable-libmysofa --enable-libopenjpeg --enable-libopenmpt --enable-libopus --enable-libpulse --enable-librabbitmq --enable-librubberband --enable-libshine --enable-libsnappy --enable-libsoxr --enable-libspeex --enable-libsrt --enable-libssh --enable-libtheora --enable-libtwolame --enable-libvidstab --enable-libvorbis --enable-libvpx --enable-libwebp --enable-libx265 --enable-libxml2 --enable-libxvid --enable-libzimg --enable-libzmq --enable-libzvbi --enable-lv2 --enable-omx --enable-openal --enable-opencl --enable-opengl --enable-sdl2 --enable-pocketsphinx --enable-librsvg --enable-libmfx --enable-libdc1394 --enable-libdrm --enable-libiec61883 --enable-chromaprint --enable-frei0r --enable-libx264 --enable-shared\n",
      "  libavutil      56. 70.100 / 56. 70.100\n",
      "  libavcodec     58.134.100 / 58.134.100\n",
      "  libavformat    58. 76.100 / 58. 76.100\n",
      "  libavdevice    58. 13.100 / 58. 13.100\n",
      "  libavfilter     7.110.100 /  7.110.100\n",
      "  libswscale      5.  9.100 /  5.  9.100\n",
      "  libswresample   3.  9.100 /  3.  9.100\n",
      "  libpostproc    55.  9.100 / 55.  9.100\n",
      "Input #0, mov,mp4,m4a,3gp,3g2,mj2, from '/mnt/disk1/chris/uaicraft_workspace/translate-everywhere/jupyter_test/evo_audio/record_m4a/No._16_Beiping_E_Rd_7.m4a':\n",
      "  Metadata:\n",
      "    major_brand     : qt  \n",
      "    minor_version   : 0\n",
      "    compatible_brands: qt  \n",
      "    creation_time   : 2024-05-24T09:57:05.000000Z\n",
      "    voice-memo-uuid : 3038578D-C45F-4125-B45A-2E8FB0BDEADC\n",
      "    encoder         : com.apple.VoiceMemos (iPhone Version 17.4.1 (Build 21E236))\n",
      "    title           : No. 16 Beiping E Rd 7\n",
      "    com.apple.quicktime.creationdate: 2024-05-24T09:38:14Z\n",
      "  Duration: 00:04:22.90, start: 0.000000, bitrate: 66 kb/s\n",
      "  Stream #0:0(und): Audio: aac (LC) (mp4a / 0x6134706D), 48000 Hz, mono, fltp, 64 kb/s (default)\n",
      "    Metadata:\n",
      "      creation_time   : 2024-05-24T09:57:05.000000Z\n",
      "      handler_name    : Core Media Audio\n",
      "      vendor_id       : [0][0][0][0]\n",
      "Stream mapping:\n",
      "  Stream #0:0 -> #0:0 (aac (native) -> pcm_s16le (native))\n",
      "Press [q] to stop, [?] for help\n",
      "Output #0, wav, to '/mnt/disk1/chris/uaicraft_workspace/translate-everywhere/jupyter_test/evo_audio/record_wav/No._16_Beiping_E_Rd_7.wav':\n",
      "  Metadata:\n",
      "    major_brand     : qt  \n",
      "    minor_version   : 0\n",
      "    compatible_brands: qt  \n",
      "    com.apple.quicktime.creationdate: 2024-05-24T09:38:14Z\n",
      "    voice-memo-uuid : 3038578D-C45F-4125-B45A-2E8FB0BDEADC\n",
      "    INAM            : No. 16 Beiping E Rd 7\n",
      "    ISFT            : Lavf58.76.100\n",
      "  Stream #0:0(und): Audio: pcm_s16le ([1][0][0][0] / 0x0001), 48000 Hz, mono, s16, 768 kb/s (default)\n",
      "    Metadata:\n",
      "      creation_time   : 2024-05-24T09:57:05.000000Z\n",
      "      handler_name    : Core Media Audio\n",
      "      vendor_id       : [0][0][0][0]\n",
      "      encoder         : Lavc58.134.100 pcm_s16le\n",
      "size=   24648kB time=00:04:22.89 bitrate= 768.1kbits/s speed=2.43e+03x    \n",
      "video:0kB audio:24648kB subtitle:0kB other streams:0kB global headers:0kB muxing overhead: 0.000428%\n",
      "ffmpeg version 4.4.2-0ubuntu0.22.04.1 Copyright (c) 2000-2021 the FFmpeg developers\n",
      "  built with gcc 11 (Ubuntu 11.2.0-19ubuntu1)\n",
      "  configuration: --prefix=/usr --extra-version=0ubuntu0.22.04.1 --toolchain=hardened --libdir=/usr/lib/x86_64-linux-gnu --incdir=/usr/include/x86_64-linux-gnu --arch=amd64 --enable-gpl --disable-stripping --enable-gnutls --enable-ladspa --enable-libaom --enable-libass --enable-libbluray --enable-libbs2b --enable-libcaca --enable-libcdio --enable-libcodec2 --enable-libdav1d --enable-libflite --enable-libfontconfig --enable-libfreetype --enable-libfribidi --enable-libgme --enable-libgsm --enable-libjack --enable-libmp3lame --enable-libmysofa --enable-libopenjpeg --enable-libopenmpt --enable-libopus --enable-libpulse --enable-librabbitmq --enable-librubberband --enable-libshine --enable-libsnappy --enable-libsoxr --enable-libspeex --enable-libsrt --enable-libssh --enable-libtheora --enable-libtwolame --enable-libvidstab --enable-libvorbis --enable-libvpx --enable-libwebp --enable-libx265 --enable-libxml2 --enable-libxvid --enable-libzimg --enable-libzmq --enable-libzvbi --enable-lv2 --enable-omx --enable-openal --enable-opencl --enable-opengl --enable-sdl2 --enable-pocketsphinx --enable-librsvg --enable-libmfx --enable-libdc1394 --enable-libdrm --enable-libiec61883 --enable-chromaprint --enable-frei0r --enable-libx264 --enable-shared\n",
      "  libavutil      56. 70.100 / 56. 70.100\n",
      "  libavcodec     58.134.100 / 58.134.100\n",
      "  libavformat    58. 76.100 / 58. 76.100\n",
      "  libavdevice    58. 13.100 / 58. 13.100\n",
      "  libavfilter     7.110.100 /  7.110.100\n",
      "  libswscale      5.  9.100 /  5.  9.100\n",
      "  libswresample   3.  9.100 /  3.  9.100\n",
      "  libpostproc    55.  9.100 / 55.  9.100\n",
      "Input #0, mov,mp4,m4a,3gp,3g2,mj2, from '/mnt/disk1/chris/uaicraft_workspace/translate-everywhere/jupyter_test/evo_audio/record_m4a/No._16_Beiping_E_Rd_13.m4a':\n",
      "  Metadata:\n",
      "    major_brand     : qt  \n",
      "    minor_version   : 0\n",
      "    compatible_brands: qt  \n",
      "    creation_time   : 2024-05-24T09:55:39.000000Z\n",
      "    voice-memo-uuid : 72E70B40-4EC7-415C-8AAA-23AA07027BE8\n",
      "    encoder         : com.apple.VoiceMemos (iPhone Version 17.4.1 (Build 21E236))\n",
      "    title           : No. 16 Beiping E Rd 13\n",
      "    com.apple.quicktime.creationdate: 2024-05-24T09:53:07Z\n",
      "  Duration: 00:00:17.79, start: 0.000000, bitrate: 67 kb/s\n",
      "  Stream #0:0(und): Audio: aac (LC) (mp4a / 0x6134706D), 48000 Hz, mono, fltp, 64 kb/s (default)\n",
      "    Metadata:\n",
      "      creation_time   : 2024-05-24T09:55:39.000000Z\n",
      "      handler_name    : Core Media Audio\n",
      "      vendor_id       : [0][0][0][0]\n",
      "Stream mapping:\n",
      "  Stream #0:0 -> #0:0 (aac (native) -> pcm_s16le (native))\n",
      "Press [q] to stop, [?] for help\n",
      "Output #0, wav, to '/mnt/disk1/chris/uaicraft_workspace/translate-everywhere/jupyter_test/evo_audio/record_wav/No._16_Beiping_E_Rd_13.wav':\n",
      "  Metadata:\n",
      "    major_brand     : qt  \n",
      "    minor_version   : 0\n",
      "    compatible_brands: qt  \n",
      "    com.apple.quicktime.creationdate: 2024-05-24T09:53:07Z\n",
      "    voice-memo-uuid : 72E70B40-4EC7-415C-8AAA-23AA07027BE8\n",
      "    INAM            : No. 16 Beiping E Rd 13\n",
      "    ISFT            : Lavf58.76.100\n",
      "  Stream #0:0(und): Audio: pcm_s16le ([1][0][0][0] / 0x0001), 48000 Hz, mono, s16, 768 kb/s (default)\n",
      "    Metadata:\n",
      "      creation_time   : 2024-05-24T09:55:39.000000Z\n",
      "      handler_name    : Core Media Audio\n",
      "      vendor_id       : [0][0][0][0]\n",
      "      encoder         : Lavc58.134.100 pcm_s16le\n",
      "size=       2kB time=00:00:00.00 bitrate=N/A speed=N/A    \r"
     ]
    },
    {
     "name": "stdout",
     "output_type": "stream",
     "text": [
      "Converted /mnt/disk1/chris/uaicraft_workspace/translate-everywhere/jupyter_test/evo_audio/record_m4a/No._16_Beiping_E_Rd_10.m4a to /mnt/disk1/chris/uaicraft_workspace/translate-everywhere/jupyter_test/evo_audio/record_wav/No._16_Beiping_E_Rd_10.wav\n",
      "Converted /mnt/disk1/chris/uaicraft_workspace/translate-everywhere/jupyter_test/evo_audio/record_m4a/No._16_Beiping_E_Rd_7.m4a to /mnt/disk1/chris/uaicraft_workspace/translate-everywhere/jupyter_test/evo_audio/record_wav/No._16_Beiping_E_Rd_7.wav\n",
      "Converted /mnt/disk1/chris/uaicraft_workspace/translate-everywhere/jupyter_test/evo_audio/record_m4a/No._16_Beiping_E_Rd_13.m4a to /mnt/disk1/chris/uaicraft_workspace/translate-everywhere/jupyter_test/evo_audio/record_wav/No._16_Beiping_E_Rd_13.wav\n"
     ]
    },
    {
     "name": "stderr",
     "output_type": "stream",
     "text": [
      "size=    1670kB time=00:00:17.79 bitrate= 769.0kbits/s speed=1.93e+03x    \n",
      "video:0kB audio:1670kB subtitle:0kB other streams:0kB global headers:0kB muxing overhead: 0.006432%\n"
     ]
    }
   ],
   "source": [
    "from pathlib import Path\n",
    "import subprocess\n",
    "\n",
    "def convert_m4a_to_wav(input_directory, output_directory):\n",
    "    input_path = Path(input_directory)\n",
    "    output_path = Path(output_directory)\n",
    "    output_path.mkdir(parents=True, exist_ok=True)\n",
    "\n",
    "    for m4a_file in input_path.glob(\"*.m4a\"):\n",
    "        wav_file = output_path / m4a_file.with_suffix('.wav').name\n",
    "        subprocess.run(['ffmpeg', '-i', str(m4a_file), str(wav_file)])\n",
    "        print(f\"Converted {m4a_file} to {wav_file}\")\n",
    "\n",
    "# 指定資料夾路徑\n",
    "input_directory = '/mnt/disk1/chris/uaicraft_workspace/translate-everywhere/jupyter_test/evo_audio/record_m4a'\n",
    "output_directory = '/mnt/disk1/chris/uaicraft_workspace/translate-everywhere/jupyter_test/evo_audio/record_wav'\n",
    "\n",
    "# 轉換音檔\n",
    "convert_m4a_to_wav(input_directory, output_directory)\n"
   ]
  },
  {
   "cell_type": "code",
   "execution_count": null,
   "metadata": {},
   "outputs": [],
   "source": []
  }
 ],
 "metadata": {
  "kernelspec": {
   "display_name": "translate-everywhere",
   "language": "python",
   "name": "python3"
  },
  "language_info": {
   "codemirror_mode": {
    "name": "ipython",
    "version": 3
   },
   "file_extension": ".py",
   "mimetype": "text/x-python",
   "name": "python",
   "nbconvert_exporter": "python",
   "pygments_lexer": "ipython3",
   "version": "3.10.14"
  }
 },
 "nbformat": 4,
 "nbformat_minor": 2
}
